<svg width="29" height="48" viewBox="0 0 29 48" fill="none" xmlns="http://www.w3.org/2000/svg">
<path d="M3.52697 1.76349C3.52697 1.29578 3.34118 0.84723 3.01046 0.516513C2.67974 0.185795 2.23119 0 1.76349 0C1.29578 0 0.84723 0.185795 0.516513 0.516513C0.185795 0.84723 5.48916e-08 1.29578 5.48916e-08 1.76349L5.48916e-08 8.81743C-0.000164365 9.82457 0.369048 10.7968 1.0377 11.55C1.70635 12.3031 2.62801 12.7849 3.62808 12.904L1.23914 18.7941C0.765576 19.9768 0.545773 21.2458 0.593975 22.5189C0.642176 23.792 0.957307 25.0407 1.51895 26.1842L10.9007 44.8772C11.5661 46.208 12.7888 47.0263 14.1079 47.0263C15.427 47.0263 16.6473 46.208 17.3174 44.8795L26.6992 26.1842C27.8301 23.927 27.936 21.1595 26.9766 18.7941L24.5877 12.904C25.5878 12.7849 26.5094 12.3031 27.1781 11.55C27.8467 10.7968 28.2159 9.82457 28.2158 8.81743V1.76349C28.2158 1.29578 28.03 0.84723 27.6993 0.516513C27.3685 0.185795 26.92 0 26.4523 0C25.9846 0 25.536 0.185795 25.2053 0.516513C24.8746 0.84723 24.6888 1.29578 24.6888 1.76349V8.81743C24.6888 8.97333 24.6269 9.12285 24.5166 9.23309C24.4064 9.34332 24.2569 9.40526 24.101 9.40526L14.1079 9.40526H4.1148C3.9589 9.40526 3.80938 9.34332 3.69914 9.23309C3.5889 9.12285 3.52697 8.97333 3.52697 8.81743L3.52697 1.76349ZM20.7927 12.9322L23.7083 20.1202C24.2891 21.5545 24.2185 23.2616 23.5437 24.6018L15.8714 39.8947V24.2162C16.5438 23.828 17.0693 23.2288 17.3664 22.5114C17.6635 21.7941 17.7156 20.9988 17.5147 20.2489C17.3137 19.4989 16.8709 18.8362 16.255 18.3636C15.639 17.891 14.8843 17.6348 14.1079 17.6348C13.3315 17.6348 12.5768 17.891 11.9608 18.3636C11.3448 18.8362 10.902 19.4989 10.7011 20.2489C10.5001 20.9988 10.5523 21.7941 10.8494 22.5114C11.1465 23.2288 11.672 23.828 12.3444 24.2162V39.8947L4.66971 24.6018C4.33344 23.9069 4.14537 23.1496 4.11744 22.3781C4.08951 21.6065 4.22233 20.8376 4.50747 20.1202L7.4231 12.9322L20.7927 12.9322Z" fill="black" fill-opacity="0.8"/>
<path d="M23.7083 20.1202L20.7927 12.9322L14.1079 17.6348C14.8843 17.6348 15.639 17.891 16.255 18.3636C16.8709 18.8362 17.3137 19.4989 17.5147 20.2489C17.7156 20.9988 17.6635 21.7941 17.3664 22.5114C17.0693 23.2288 16.5438 23.828 15.8714 24.2162V39.8947L23.5437 24.6018C24.2185 23.2616 24.2891 21.5545 23.7083 20.1202Z" fill="#ED878A"/>
<path d="M11.9608 18.3636C12.5768 17.891 13.3315 17.6348 14.1079 17.6348L20.7927 12.9322L7.4231 12.9322L4.50747 20.1202C4.22233 20.8376 4.08951 21.6065 4.11744 22.3781C4.14537 23.1496 4.33344 23.9069 4.66971 24.6018L12.3444 39.8947V24.2162C11.672 23.828 11.1465 23.2288 10.8494 22.5114C10.5523 21.7941 10.5001 20.9988 10.7011 20.2489C10.902 19.4989 11.3448 18.8362 11.9608 18.3636Z" fill="#68C2F7"/>
<path d="M24.6888 8.81743V1.76349L3.52697 1.76349L3.52697 8.81743C3.52697 8.97333 3.5889 9.12285 3.69914 9.23309C3.80938 9.34332 3.9589 9.40526 4.1148 9.40526H14.1079L24.101 9.40526C24.2569 9.40526 24.4064 9.34332 24.5166 9.23309C24.6269 9.12285 24.6888 8.97333 24.6888 8.81743Z" fill="#707CEC"/>
</svg>
